<svg width="63" height="73" viewBox="0 0 64 73" fill="none" xmlns="http://www.w3.org/2000/svg">
    <path 
        d="M64 36.4696C64 32.2299 58.6906 28.212 50.5504 25.7203C52.4289 17.4235 51.594 10.8226 47.9152 8.70931C47.0673 8.21359 46.0758 7.97877 44.9931 7.97877V10.8879C45.5931 10.8879 46.0758 11.0053 46.4802 11.227C48.2544 12.2446 49.0241 16.119 48.424 21.1023C48.2805 22.3285 48.0457 23.62 47.7587 24.9376C45.2018 24.3114 42.4101 23.8288 39.4749 23.5157C37.7138 21.1023 35.8875 18.9107 34.0481 16.993C38.3009 13.0403 42.2927 10.8748 45.0061 10.8748V7.96573C41.4187 7.96573 36.7224 10.5226 31.9739 14.958C27.2254 10.5487 22.5291 8.01791 18.9417 8.01791V10.927C21.6421 10.927 25.647 13.0795 29.8997 17.0061C28.0734 18.9237 26.247 21.1023 24.512 23.5157C21.5638 23.8288 18.7721 24.3114 16.2152 24.9506C15.9152 23.6461 15.6934 22.3807 15.5369 21.1675C14.9238 16.1842 15.6804 12.3098 17.4415 11.2792C17.8329 11.0444 18.3416 10.94 18.9417 10.94V8.03096C17.8459 8.03096 16.8545 8.26577 15.9935 8.76149C12.3278 10.8748 11.5059 17.4627 13.3975 25.7334C5.28333 28.238 0 32.2429 0 36.4696C0 40.7093 5.30942 44.7272 13.4497 47.2189C11.5711 55.5157 12.406 62.1166 16.0848 64.2299C16.9327 64.7256 17.9242 64.9604 19.02 64.9604C22.6074 64.9604 27.3037 62.4036 32.0522 57.9682C36.8007 62.3775 41.4969 64.9082 45.0844 64.9082C46.1802 64.9082 47.1716 64.6734 48.0326 64.1777C51.6983 62.0644 52.5202 55.4765 50.6286 47.2058C58.7167 44.7142 64 40.6963 64 36.4696ZM47.0151 27.7684C46.5324 29.4513 45.9323 31.1863 45.254 32.9213C44.7191 31.8777 44.1582 30.8341 43.545 29.7904C42.945 28.7468 42.3058 27.7293 41.6665 26.7378C43.519 27.0118 45.3062 27.351 47.0151 27.7684ZM41.0404 41.6616C40.0228 43.4227 38.9792 45.0925 37.8965 46.6449C35.9527 46.8145 33.9829 46.9058 32 46.9058C30.0302 46.9058 28.0603 46.8145 26.1296 46.6579C25.0469 45.1056 23.9902 43.4488 22.9727 41.7007C21.9812 39.9918 21.0811 38.2568 20.2593 36.5087C21.0681 34.7607 21.9813 33.0126 22.9596 31.3037C23.9772 29.5426 25.0208 27.8728 26.1035 26.3204C28.0473 26.1508 30.0171 26.0595 32 26.0595C33.9698 26.0595 35.9397 26.1508 37.8704 26.3074C38.9531 27.8597 40.0098 29.5165 41.0273 31.2645C42.0188 32.9735 42.9189 34.7085 43.7407 36.4566C42.9189 38.2046 42.0188 39.9527 41.0404 41.6616ZM45.254 39.9657C45.9584 41.7138 46.5585 43.4619 47.0542 45.1577C45.3453 45.5752 43.545 45.9274 41.6796 46.2014C42.3188 45.1969 42.958 44.1663 43.5581 43.1096C44.1582 42.066 44.7191 41.0093 45.254 39.9657ZM32.0261 53.885C30.8129 52.6327 29.5997 51.2368 28.3995 49.7105C29.5736 49.7627 30.7737 49.8018 31.987 49.8018C33.2132 49.8018 34.4264 49.7758 35.6135 49.7105C34.4395 51.2368 33.2263 52.6327 32.0261 53.885ZM22.3204 46.2014C20.468 45.9274 18.6808 45.5882 16.9719 45.1708C17.4545 43.4879 18.0546 41.7529 18.733 40.0179C19.2678 41.0615 19.8288 42.1051 20.4419 43.1488C21.055 44.1924 21.6812 45.2099 22.3204 46.2014ZM31.9609 19.0542C33.1741 20.3065 34.3873 21.7024 35.5874 23.2287C34.4134 23.1765 33.2132 23.1374 32 23.1374C30.7737 23.1374 29.5605 23.1634 28.3734 23.2287C29.5475 21.7024 30.7607 20.3065 31.9609 19.0542ZM22.3074 26.7378C21.6682 27.7423 21.0289 28.7729 20.4289 29.8296C19.8288 30.8732 19.2678 31.9168 18.733 32.9604C18.0285 31.2124 17.4285 29.4643 16.9327 27.7684C18.6417 27.364 20.4419 27.0118 22.3074 26.7378ZM10.5014 43.0705C5.88341 41.1007 2.89605 38.5177 2.89605 36.4696C2.89605 34.4215 5.88341 31.8255 10.5014 29.8687C11.6233 29.386 12.8496 28.9555 14.115 28.5511C14.8585 31.108 15.8369 33.7692 17.0501 36.4957C15.85 39.2091 14.8846 41.8573 14.1541 44.4011C12.8626 43.9967 11.6364 43.5532 10.5014 43.0705ZM17.5198 61.7122C15.7456 60.6946 14.976 56.8202 15.576 51.8369C15.7195 50.6106 15.9543 49.3192 16.2413 48.0016C18.7982 48.6278 21.5899 49.1104 24.5251 49.4235C26.2862 51.8369 28.1125 54.0285 29.9519 55.9462C25.6991 59.8989 21.7073 62.0644 18.9939 62.0644C18.4068 62.0513 17.9111 61.9339 17.5198 61.7122ZM48.4631 51.7717C49.0762 56.755 48.3196 60.6294 46.5585 61.66C46.1671 61.8948 45.6584 61.9992 45.0583 61.9992C42.3579 61.9992 38.353 59.8467 34.1003 55.9201C35.9266 54.0024 37.753 51.8239 39.488 49.4105C42.4362 49.0974 45.2279 48.6147 47.7848 47.9755C48.0848 49.2931 48.3196 50.5585 48.4631 51.7717ZM53.4855 43.0705C52.3636 43.5532 51.1374 43.9837 49.872 44.3881C49.1284 41.8312 48.15 39.17 46.9368 36.4435C48.137 33.7301 49.1023 31.0819 49.8329 28.5381C51.1243 28.9425 52.3506 29.386 53.4986 29.8687C58.1166 31.8385 61.104 34.4215 61.104 36.4696C61.0909 38.5177 58.1035 41.1137 53.4855 43.0705Z" 
        fill="#61DAFB"
    />
    <path 
        d="M31.9869 42.4313C35.2795 42.4313 37.9486 39.7622 37.9486 36.4696C37.9486 33.1771 35.2795 30.5079 31.9869 30.5079C28.6944 30.5079 26.0253 33.1771 26.0253 36.4696C26.0253 39.7622 28.6944 42.4313 31.9869 42.4313Z"
        fill="#61DAFB"
    />
</svg>